#define psf_width  256
#define psf_height 128
static unsigned char psf_bits[] = {
 0x00, 0x7e, 0x7e, 0x36, 0x08, 0x1c, 0x08, 0x00, 0xff, 0x00, 0xff, 0xf0,
 0x3c, 0xfc, 0xfe, 0x99, 0x01, 0x40, 0x18, 0x66, 0xfe, 0x7c, 0x00, 0x18,
 0x18, 0x18, 0x00, 0x00, 0x00, 0x00, 0x00, 0x00, 0x00, 0x81, 0xff, 0x7f,
 0x1c, 0x3e, 0x08, 0x00, 0xff, 0x3c, 0xc3, 0xe0, 0x66, 0xcc, 0xc6, 0x5a,
 0x07, 0x70, 0x3c, 0x66, 0xdb, 0xc6, 0x00, 0x3c, 0x3c, 0x18, 0x18, 0x0c,
 0x00, 0x24, 0x18, 0xff, 0x00, 0xa5, 0xdb, 0x7f, 0x3e, 0x1c, 0x1c, 0x18,
 0xe7, 0x66, 0x99, 0xf0, 0x66, 0xfc, 0xfe, 0x3c, 0x1f, 0x7c, 0x7e, 0x66,
 0xdb, 0x1c, 0x00, 0x7e, 0x7e, 0x18, 0x30, 0x06, 0x03, 0x66, 0x3c, 0xff,
 0x00, 0x81, 0xff, 0x7f, 0x7f, 0x7f, 0x3e, 0x3c, 0xc3, 0x42, 0xbd, 0xbe,
 0x66, 0x0c, 0xc6, 0xe7, 0x7f, 0x7f, 0x18, 0x66, 0xde, 0x36, 0x00, 0x18,
 0x18, 0x18, 0x7f, 0x7f, 0x03, 0xff, 0x7e, 0x7e, 0x00, 0xbd, 0xc3, 0x3e,
 0x3e, 0x7f, 0x7f, 0x3c, 0xc3, 0x42, 0xbd, 0x33, 0x3c, 0x0c, 0xc6, 0xe7,
 0x1f, 0x7c, 0x18, 0x66, 0xd8, 0x36, 0x7e, 0x7e, 0x18, 0x7e, 0x30, 0x06,
 0x03, 0x66, 0xff, 0x3c, 0x00, 0x99, 0xe7, 0x1c, 0x1c, 0x3e, 0x3e, 0x18,
 0xe7, 0x66, 0x99, 0x33, 0x18, 0x0e, 0xe6, 0x3c, 0x07, 0x70, 0x7e, 0x00,
 0xd8, 0x1c, 0x7e, 0x3c, 0x18, 0x3c, 0x18, 0x0c, 0x7f, 0x24, 0xff, 0x18,
 0x00, 0x81, 0xff, 0x08, 0x08, 0x1c, 0x1c, 0x00, 0xff, 0x3c, 0xc3, 0x33,
 0x7e, 0x0f, 0x67, 0x5a, 0x01, 0x40, 0x3c, 0x66, 0xd8, 0x33, 0x7e, 0x18,
 0x18, 0x18, 0x00, 0x00, 0x00, 0x00, 0x00, 0x00, 0x00, 0x7e, 0x7e, 0x00,
 0x00, 0x3e, 0x3e, 0x00, 0xff, 0x00, 0xff, 0x1e, 0x18, 0x07, 0x03, 0x99,
 0x00, 0x00, 0x18, 0x00, 0x00, 0x1e, 0x00, 0xff, 0x00, 0x00, 0x00, 0x00,
 0x00, 0x00, 0x00, 0x00, 0x00, 0x0c, 0x36, 0x36, 0x0c, 0x00, 0x1c, 0x06,
 0x18, 0x06, 0x00, 0x00, 0x00, 0x00, 0x00, 0x60, 0x3e, 0x0c, 0x1e, 0x1e,
 0x38, 0x3f, 0x1c, 0x3f, 0x1e, 0x1e, 0x00, 0x00, 0x18, 0x00, 0x06, 0x1e,
 0x00, 0x1e, 0x36, 0x36, 0x3e, 0x63, 0x36, 0x06, 0x0c, 0x0c, 0x66, 0x0c,
 0x00, 0x00, 0x00, 0x30, 0x63, 0x0e, 0x33, 0x33, 0x3c, 0x03, 0x06, 0x33,
 0x33, 0x33, 0x0c, 0x0c, 0x0c, 0x00, 0x0c, 0x33, 0x00, 0x1e, 0x36, 0x7f,
 0x03, 0x33, 0x1c, 0x03, 0x06, 0x18, 0x3c, 0x0c, 0x00, 0x00, 0x00, 0x18,
 0x73, 0x0c, 0x30, 0x30, 0x36, 0x1f, 0x03, 0x30, 0x33, 0x33, 0x0c, 0x0c,
 0x06, 0x3f, 0x18, 0x30, 0x00, 0x0c, 0x00, 0x36, 0x1e, 0x18, 0x6e, 0x00,
 0x06, 0x18, 0xff, 0x3f, 0x00, 0x3f, 0x00, 0x0c, 0x7b, 0x0c, 0x1c, 0x1c,
 0x33, 0x30, 0x1f, 0x18, 0x1e, 0x3e, 0x00, 0x00, 0x03, 0x00, 0x30, 0x18,
 0x00, 0x0c, 0x00, 0x7f, 0x30, 0x0c, 0x3b, 0x00, 0x06, 0x18, 0x3c, 0x0c,
 0x00, 0x00, 0x00, 0x06, 0x6f, 0x0c, 0x06, 0x30, 0x7f, 0x30, 0x33, 0x0c,
 0x33, 0x30, 0x00, 0x00, 0x06, 0x00, 0x18, 0x0c, 0x00, 0x00, 0x00, 0x36,
 0x1f, 0x66, 0x33, 0x00, 0x0c, 0x0c, 0x66, 0x0c, 0x0c, 0x00, 0x0c, 0x03,
 0x67, 0x0c, 0x33, 0x33, 0x30, 0x33, 0x33, 0x0c, 0x33, 0x18, 0x0c, 0x0c,
 0x0c, 0x3f, 0x0c, 0x00, 0x00, 0x0c, 0x00, 0x36, 0x0c, 0x63, 0x6e, 0x00,
 0x18, 0x06, 0x00, 0x00, 0x0c, 0x00, 0x0c, 0x01, 0x3e, 0x3f, 0x3f, 0x1e,
 0x78, 0x1e, 0x1e, 0x0c, 0x1e, 0x0e, 0x0c, 0x0c, 0x18, 0x00, 0x06, 0x0c,
 0x00, 0x00, 0x00, 0x00, 0x00, 0x00, 0x00, 0x00, 0x00, 0x00, 0x00, 0x00,
 0x06, 0x00, 0x00, 0x00, 0x00, 0x00, 0x00, 0x00, 0x00, 0x00, 0x00, 0x00,
 0x00, 0x00, 0x00, 0x06, 0x00, 0x00, 0x00, 0x00, 0x3e, 0x0c, 0x3f, 0x3c,
 0x1f, 0x7f, 0x7f, 0x3c, 0x33, 0x1e, 0x78, 0x67, 0x0f, 0x63, 0x63, 0x1c,
 0x3f, 0x1e, 0x3f, 0x1e, 0x3f, 0x33, 0x33, 0x63, 0x63, 0x33, 0x7f, 0x1e,
 0x03, 0x1e, 0x08, 0x00, 0x63, 0x1e, 0x66, 0x66, 0x36, 0x46, 0x46, 0x66,
 0x33, 0x0c, 0x30, 0x66, 0x06, 0x77, 0x67, 0x36, 0x66, 0x33, 0x66, 0x33,
 0x2d, 0x33, 0x33, 0x63, 0x63, 0x33, 0x63, 0x06, 0x06, 0x18, 0x1c, 0x00,
 0x7b, 0x33, 0x66, 0x03, 0x66, 0x16, 0x16, 0x03, 0x33, 0x0c, 0x30, 0x36,
 0x06, 0x7f, 0x6f, 0x63, 0x66, 0x33, 0x66, 0x07, 0x0c, 0x33, 0x33, 0x63,
 0x36, 0x33, 0x31, 0x06, 0x0c, 0x18, 0x36, 0x00, 0x7b, 0x33, 0x3e, 0x03,
 0x66, 0x1e, 0x1e, 0x03, 0x3f, 0x0c, 0x30, 0x1e, 0x06, 0x7f, 0x7b, 0x63,
 0x3e, 0x33, 0x3e, 0x0e, 0x0c, 0x33, 0x33, 0x6b, 0x1c, 0x1e, 0x18, 0x06,
 0x18, 0x18, 0x63, 0x00, 0x7b, 0x3f, 0x66, 0x03, 0x66, 0x16, 0x16, 0x73,
 0x33, 0x0c, 0x33, 0x36, 0x46, 0x6b, 0x73, 0x63, 0x06, 0x3b, 0x36, 0x38,
 0x0c, 0x33, 0x33, 0x7f, 0x1c, 0x0c, 0x4c, 0x06, 0x30, 0x18, 0x00, 0x00,
 0x03, 0x33, 0x66, 0x66, 0x36, 0x46, 0x06, 0x66, 0x33, 0x0c, 0x33, 0x66,
 0x66, 0x63, 0x63, 0x36, 0x06, 0x1e, 0x66, 0x33, 0x0c, 0x33, 0x1e, 0x77,
 0x36, 0x0c, 0x66, 0x06, 0x60, 0x18, 0x00, 0x00, 0x1e, 0x33, 0x3f, 0x3c,
 0x1f, 0x7f, 0x0f, 0x7c, 0x33, 0x1e, 0x1e, 0x67, 0x7f, 0x63, 0x63, 0x1c,
 0x0f, 0x38, 0x67, 0x1e, 0x1e, 0x3f, 0x0c, 0x63, 0x63, 0x1e, 0x7f, 0x1e,
 0x40, 0x1e, 0x00, 0x00, 0x00, 0x00, 0x00, 0x00, 0x00, 0x00, 0x00, 0x00,
 0x00, 0x00, 0x00, 0x00, 0x00, 0x00, 0x00, 0x00, 0x00, 0x00, 0x00, 0x00,
 0x00, 0x00, 0x00, 0x00, 0x00, 0x00, 0x00, 0x00, 0x00, 0x00, 0x00, 0xff,
 0x0c, 0x00, 0x07, 0x00, 0x38, 0x00, 0x1c, 0x00, 0x07, 0x0c, 0x30, 0x07,
 0x0e, 0x00, 0x00, 0x00, 0x00, 0x00, 0x00, 0x00, 0x08, 0x00, 0x00, 0x00,
 0x00, 0x00, 0x00, 0x38, 0x18, 0x07, 0x6e, 0x00, 0x0c, 0x00, 0x06, 0x00,
 0x30, 0x00, 0x36, 0x00, 0x06, 0x00, 0x00, 0x06, 0x0c, 0x00, 0x00, 0x00,
 0x00, 0x00, 0x00, 0x00, 0x0c, 0x00, 0x00, 0x00, 0x00, 0x00, 0x00, 0x0c,
 0x18, 0x0c, 0x3b, 0x08, 0x18, 0x1e, 0x06, 0x1e, 0x30, 0x1e, 0x06, 0x6e,
 0x36, 0x0e, 0x30, 0x66, 0x0c, 0x33, 0x1f, 0x1e, 0x3b, 0x6e, 0x3b, 0x3e,
 0x3e, 0x33, 0x33, 0x63, 0x63, 0x33, 0x3f, 0x0c, 0x18, 0x0c, 0x00, 0x1c,
 0x00, 0x30, 0x3e, 0x33, 0x3e, 0x33, 0x0f, 0x33, 0x6e, 0x0c, 0x30, 0x36,
 0x0c, 0x7f, 0x33, 0x33, 0x66, 0x33, 0x6e, 0x03, 0x0c, 0x33, 0x33, 0x6b,
 0x36, 0x33, 0x19, 0x07, 0x00, 0x38, 0x00, 0x36, 0x00, 0x3e, 0x66, 0x03,
 0x33, 0x3f, 0x06, 0x33, 0x66, 0x0c, 0x30, 0x1e, 0x0c, 0x7f, 0x33, 0x33,
 0x66, 0x33, 0x66, 0x1e, 0x0c, 0x33, 0x33, 0x7f, 0x1c, 0x33, 0x0c, 0x0c,
 0x18, 0x0c, 0x00, 0x63, 0x00, 0x33, 0x66, 0x33, 0x33, 0x03, 0x06, 0x3e,
 0x66, 0x0c, 0x33, 0x36, 0x0c, 0x6b, 0x33, 0x33, 0x3e, 0x3e, 0x06, 0x30,
 0x2c, 0x33, 0x1e, 0x7f, 0x36, 0x3e, 0x26, 0x0c, 0x18, 0x0c, 0x00, 0x63,
 0x00, 0x6e, 0x3b, 0x1e, 0x6e, 0x1e, 0x0f, 0x30, 0x67, 0x1e, 0x33, 0x67,
 0x1e, 0x63, 0x33, 0x1e, 0x06, 0x30, 0x0f, 0x1f, 0x18, 0x6e, 0x0c, 0x36,
 0x63, 0x30, 0x3f, 0x38, 0x18, 0x07, 0x00, 0x7f, 0x00, 0x00, 0x00, 0x00,
 0x00, 0x00, 0x00, 0x1f, 0x00, 0x00, 0x1e, 0x00, 0x00, 0x00, 0x00, 0x00,
 0x0f, 0x78, 0x00, 0x00, 0x00, 0x00, 0x00, 0x00, 0x00, 0x1f, 0x00, 0x00,
 0x00, 0x00, 0x00, 0x00, 0x3c, 0x00, 0x70, 0x7e, 0x66, 0x0e, 0x18, 0x00,
 0x7e, 0x66, 0x0e, 0x66, 0x3e, 0x0e, 0xc6, 0x18, 0x70, 0x00, 0xf8, 0x3c,
 0x00, 0x00, 0x3c, 0x00, 0x00, 0xc3, 0x66, 0x18, 0x38, 0x66, 0x1f, 0x70,
 0x66, 0x66, 0x00, 0xc3, 0x00, 0x00, 0x18, 0x00, 0xc3, 0x00, 0x00, 0x00,
 0x63, 0x00, 0x38, 0x18, 0x00, 0x00, 0x6c, 0x66, 0x66, 0x0e, 0x66, 0x0e,
 0x66, 0x18, 0x00, 0x18, 0x6c, 0x66, 0x33, 0xd8, 0x06, 0x00, 0x3c, 0x3c,
 0x3c, 0x3c, 0x3c, 0x3c, 0x3c, 0x3c, 0x3c, 0x1c, 0x1c, 0x1c, 0x6c, 0x00,
 0x7e, 0xfe, 0x66, 0x00, 0x00, 0x00, 0x00, 0x00, 0x00, 0x3c, 0x66, 0x7e,
 0x4c, 0x3c, 0x33, 0x18, 0x66, 0x66, 0x66, 0x60, 0x60, 0x60, 0x60, 0x06,
 0x66, 0x66, 0x66, 0x18, 0x18, 0x18, 0xc6, 0x3c, 0x0c, 0x30, 0xfe, 0x3c,
 0x3c, 0x3c, 0x66, 0x66, 0x66, 0x66, 0x66, 0x03, 0x1e, 0x7e, 0x5f, 0x3c,
 0x3c, 0x66, 0x7e, 0x7c, 0x7c, 0x7c, 0x7c, 0x06, 0x7e, 0x7e, 0x7e, 0x18,
 0x18, 0x18, 0xfe, 0x66, 0x3c, 0xfe, 0x66, 0x66, 0x66, 0x66, 0x66, 0x66,
 0x66, 0x66, 0x66, 0x03, 0x0c, 0x18, 0x63, 0x18, 0x30, 0x66, 0x06, 0x66,
 0x66, 0x66, 0x66, 0x3c, 0x06, 0x06, 0x06, 0x18, 0x18, 0x18, 0xc6, 0x7e,
 0x0c, 0x33, 0x66, 0x66, 0x66, 0x66, 0x66, 0x66, 0x7c, 0x3c, 0x66, 0x7e,
 0xce, 0x7e, 0xf3, 0x18, 0x60, 0xfc, 0x3c, 0xfc, 0xfc, 0xfc, 0xfc, 0x60,
 0x3c, 0x3c, 0x3c, 0x3c, 0x3c, 0x3c, 0xc6, 0x66, 0x7e, 0xfe, 0xe6, 0x3c,
 0x3c, 0x3c, 0xfc, 0xfc, 0x60, 0x18, 0x3c, 0x18, 0x7e, 0x18, 0x63, 0x1b,
 0x3c, 0x00, 0x00, 0x00, 0x00, 0x00, 0x00, 0x38, 0x00, 0x00, 0x00, 0x00,
 0x00, 0x00, 0x00, 0x00, 0x00, 0x00, 0x00, 0x00, 0x00, 0x00, 0x00, 0x00,
 0x3e, 0x00, 0x00, 0x18, 0x00, 0x18, 0xe3, 0x0e, 0x70, 0x38, 0x00, 0x00,
 0x00, 0x7e, 0x3c, 0x1c, 0x18, 0x00, 0x00, 0xc3, 0xc3, 0x18, 0x00, 0x00,
 0x44, 0xaa, 0xdb, 0x18, 0x18, 0x18, 0x6c, 0x00, 0x00, 0x6c, 0x6c, 0x00,
 0x6c, 0x6c, 0x18, 0x00, 0x00, 0x00, 0x70, 0x70, 0x3e, 0x00, 0x36, 0x36,
 0x00, 0x00, 0x00, 0x63, 0x63, 0x18, 0xcc, 0x33, 0x11, 0x55, 0xee, 0x18,
 0x18, 0x18, 0x6c, 0x00, 0x00, 0x6c, 0x6c, 0x00, 0x6c, 0x6c, 0x18, 0x00,
 0x3c, 0x1c, 0x00, 0x00, 0x00, 0x66, 0x36, 0x36, 0x18, 0x00, 0x00, 0x33,
 0x33, 0x00, 0x66, 0x66, 0x44, 0xaa, 0xdb, 0x18, 0x18, 0x1f, 0x6c, 0x00,
 0x1f, 0x6f, 0x6c, 0x7f, 0x6f, 0x6c, 0x1f, 0x00, 0x60, 0x18, 0x3c, 0x66,
 0x3e, 0x6e, 0x7c, 0x1c, 0x0c, 0x7e, 0x7e, 0x7b, 0xdb, 0x18, 0x33, 0xcc,
 0x11, 0x55, 0x77, 0x18, 0x18, 0x18, 0x6c, 0x00, 0x18, 0x60, 0x6c, 0x60,
 0x60, 0x6c, 0x18, 0x00, 0x7c, 0x18, 0x66, 0x66, 0x66, 0x7e, 0x00, 0x00,
 0x06, 0x06, 0x60, 0xcc, 0xec, 0x18, 0x66, 0x66, 0x44, 0xaa, 0xdb, 0x18,
 0x1f, 0x1f, 0x6f, 0x7f, 0x1f, 0x6f, 0x6c, 0x6f, 0x7f, 0x7f, 0x1f, 0x1f,
 0x66, 0x18, 0x66, 0x66, 0x66, 0x76, 0x7e, 0x3e, 0x66, 0x06, 0x60, 0x66,
 0xf6, 0x18, 0xcc, 0x33, 0x11, 0x55, 0xee, 0x18, 0x18, 0x18, 0x6c, 0x6c,
 0x18, 0x6c, 0x6c, 0x6c, 0x00, 0x00, 0x00, 0x18, 0xfc, 0x3c, 0x3c, 0xfc,
 0x66, 0x66, 0x00, 0x00, 0x3c, 0x00, 0x00, 0x33, 0xf3, 0x18, 0x00, 0x00,
 0x44, 0xaa, 0xdb, 0x18, 0x18, 0x18, 0x6c, 0x6c, 0x18, 0x6c, 0x6c, 0x6c,
 0x00, 0x00, 0x00, 0x18, 0x00, 0x00, 0x00, 0x00, 0x00, 0x00, 0x00, 0x00,
 0x00, 0x00, 0x00, 0xf0, 0xc0, 0x00, 0x00, 0x00, 0x11, 0x55, 0x77, 0x18,
 0x18, 0x18, 0x6c, 0x6c, 0x18, 0x6c, 0x6c, 0x6c, 0x00, 0x00, 0x00, 0x18,
 0x18, 0x18, 0x00, 0x18, 0x00, 0x18, 0x18, 0x6c, 0x6c, 0x00, 0x6c, 0x00,
 0x6c, 0x00, 0x6c, 0x18, 0x6c, 0x00, 0x00, 0x6c, 0x18, 0x00, 0x00, 0x6c,
 0x18, 0x18, 0x00, 0xff, 0x00, 0x0f, 0xf0, 0xff, 0x18, 0x18, 0x00, 0x18,
 0x00, 0x18, 0x18, 0x6c, 0x6c, 0x00, 0x6c, 0x00, 0x6c, 0x00, 0x6c, 0x18,
 0x6c, 0x00, 0x00, 0x6c, 0x18, 0x00, 0x00, 0x6c, 0x18, 0x18, 0x00, 0xff,
 0x00, 0x0f, 0xf0, 0xff, 0x18, 0x18, 0x00, 0x18, 0x00, 0x18, 0xf8, 0x6c,
 0xec, 0xfc, 0xef, 0xff, 0xec, 0xff, 0xef, 0xff, 0x6c, 0xff, 0x00, 0x6c,
 0xf8, 0xf8, 0x00, 0x6c, 0xff, 0x18, 0x00, 0xff, 0x00, 0x0f, 0xf0, 0xff,
 0x18, 0x18, 0x00, 0x18, 0x00, 0x18, 0x18, 0x6c, 0x0c, 0x0c, 0x00, 0x00,
 0x0c, 0x00, 0x00, 0x00, 0x6c, 0x00, 0x00, 0x6c, 0x18, 0x18, 0x00, 0x6c,
 0x18, 0x18, 0x00, 0xff, 0x00, 0x0f, 0xf0, 0xff, 0xf8, 0xff, 0xff, 0xf8,
 0xff, 0xff, 0xf8, 0xec, 0xfc, 0xec, 0xff, 0xef, 0xec, 0xff, 0xef, 0xff,
 0xff, 0xff, 0xff, 0xfc, 0xf8, 0xf8, 0xfc, 0xff, 0xff, 0x1f, 0xf8, 0xff,
 0xff, 0x0f, 0xf0, 0x00, 0x00, 0x00, 0x18, 0x18, 0x00, 0x18, 0x18, 0x6c,
 0x00, 0x6c, 0x00, 0x6c, 0x6c, 0x00, 0x6c, 0x00, 0x00, 0x18, 0x6c, 0x00,
 0x00, 0x18, 0x6c, 0x6c, 0x18, 0x00, 0x18, 0xff, 0xff, 0x0f, 0xf0, 0x00,
 0x00, 0x00, 0x18, 0x18, 0x00, 0x18, 0x18, 0x6c, 0x00, 0x6c, 0x00, 0x6c,
 0x6c, 0x00, 0x6c, 0x00, 0x00, 0x18, 0x6c, 0x00, 0x00, 0x18, 0x6c, 0x6c,
 0x18, 0x00, 0x18, 0xff, 0xff, 0x0f, 0xf0, 0x00, 0x00, 0x00, 0x18, 0x18,
 0x00, 0x18, 0x18, 0x6c, 0x00, 0x6c, 0x00, 0x6c, 0x6c, 0x00, 0x6c, 0x00,
 0x00, 0x18, 0x6c, 0x00, 0x00, 0x18, 0x6c, 0x6c, 0x18, 0x00, 0x18, 0xff,
 0xff, 0x0f, 0xf0, 0x00, 0x00, 0x00, 0x00, 0x00, 0x7e, 0x00, 0x00, 0x00,
 0x7e, 0x38, 0x38, 0x70, 0x00, 0x60, 0x38, 0x3c, 0x00, 0x18, 0x0c, 0x30,
 0x70, 0x18, 0x18, 0x00, 0x1c, 0x00, 0x00, 0xf0, 0x1e, 0x0e, 0x00, 0x00,
 0x00, 0x3c, 0x7e, 0xfe, 0x66, 0x00, 0xcc, 0xdc, 0x18, 0x6c, 0x6c, 0x18,
 0x00, 0x30, 0x06, 0x66, 0x7e, 0x18, 0x18, 0x18, 0xd8, 0x18, 0x18, 0x6e,
 0x36, 0x00, 0x00, 0x30, 0x36, 0x18, 0x00, 0x00, 0xdc, 0x66, 0x66, 0x6c,
 0x0c, 0xfc, 0xcc, 0x76, 0x3c, 0xc6, 0xc6, 0x30, 0x7e, 0x7e, 0x03, 0x66,
 0x00, 0x7e, 0x30, 0x0c, 0xd8, 0x18, 0x00, 0x3b, 0x36, 0x00, 0x00, 0x30,
 0x36, 0x0c, 0x3c, 0x00, 0x76, 0x3e, 0x06, 0x6c, 0x18, 0x36, 0xcc, 0x30,
 0x66, 0xfe, 0xc6, 0x7c, 0xdb, 0xdb, 0x3f, 0x66, 0x7e, 0x18, 0x18, 0x18,
 0x18, 0x18, 0x7e, 0x00, 0x1c, 0x18, 0x00, 0x30, 0x36, 0x06, 0x3c, 0x00,
 0x26, 0x66, 0x06, 0x6c, 0x0c, 0x36, 0xcc, 0x30, 0x66, 0xc6, 0x6c, 0x66,
 0xdb, 0xdb, 0x03, 0x66, 0x00, 0x18, 0x0c, 0x30, 0x18, 0x18, 0x00, 0x6e,
 0x00, 0x18, 0x18, 0x37, 0x36, 0x1e, 0x3c, 0x00, 0x76, 0x3e, 0x06, 0x6c,
 0x66, 0x36, 0x7c, 0x30, 0x3c, 0x6c, 0x6c, 0x66, 0x7e, 0x7e, 0x06, 0x66,
 0x7e, 0x00, 0x00, 0x00, 0x18, 0x1b, 0x18, 0x3b, 0x00, 0x00, 0x00, 0x36,
 0x00, 0x00, 0x3c, 0x00, 0xdc, 0x06, 0x06, 0x6c, 0x7e, 0x1c, 0x0c, 0x30,
 0x18, 0x38, 0xee, 0x3c, 0x00, 0x06, 0x38, 0x66, 0x00, 0x7e, 0x7e, 0x7e,
 0x18, 0x1b, 0x18, 0x00, 0x00, 0x00, 0x00, 0x3c, 0x00, 0x00, 0x00, 0x00,
 0x00, 0x06, 0x00, 0x00, 0x00, 0x00, 0x06, 0x00, 0x7e, 0x00, 0x00, 0x00,
 0x00, 0x03, 0x00, 0x00, 0x00, 0x00, 0x00, 0x00, 0x18, 0x0e, 0x00, 0x00,
 0x00, 0x00, 0x00, 0x38, 0x00, 0x00, 0x00, 0x00, 0x0f, 0x0f, 0xf0, 0xff,
 0x00, 0x0f, 0xf0, 0xff, 0x00, 0x0f, 0xf0, 0xff, 0x00, 0x0f, 0xf0, 0xff,
 0x00, 0x0f, 0xf0, 0xff, 0x00, 0x0f, 0xf0, 0xff, 0x00, 0x0f, 0xf0, 0xff,
 0x00, 0x0f, 0xf0, 0xff, 0x0f, 0x0f, 0xf0, 0xff, 0x00, 0x0f, 0xf0, 0xff,
 0x00, 0x0f, 0xf0, 0xff, 0x00, 0x0f, 0xf0, 0xff, 0x00, 0x0f, 0xf0, 0xff,
 0x00, 0x0f, 0xf0, 0xff, 0x00, 0x0f, 0xf0, 0xff, 0x00, 0x0f, 0xf0, 0xff,
 0x0f, 0x0f, 0xf0, 0xff, 0x00, 0x0f, 0xf0, 0xff, 0x00, 0x0f, 0xf0, 0xff,
 0x00, 0x0f, 0xf0, 0xff, 0x00, 0x0f, 0xf0, 0xff, 0x00, 0x0f, 0xf0, 0xff,
 0x00, 0x0f, 0xf0, 0xff, 0x00, 0x0f, 0xf0, 0xff, 0x0f, 0x00, 0x00, 0x00,
 0x0f, 0x0f, 0x0f, 0x0f, 0xf0, 0xf0, 0xf0, 0xf0, 0xff, 0xff, 0xff, 0xff,
 0x00, 0x00, 0x00, 0x00, 0x0f, 0x0f, 0x0f, 0x0f, 0xf0, 0xf0, 0xf0, 0xf0,
 0xff, 0xff, 0xff, 0xff, 0x0f, 0x00, 0x00, 0x00, 0x0f, 0x0f, 0x0f, 0x0f,
 0xf0, 0xf0, 0xf0, 0xf0, 0xff, 0xff, 0xff, 0xff, 0x00, 0x00, 0x00, 0x00,
 0x0f, 0x0f, 0x0f, 0x0f, 0xf0, 0xf0, 0xf0, 0xf0, 0xff, 0xff, 0xff, 0xff,
 0x0f, 0x00, 0x00, 0x00, 0x00, 0x00, 0x00, 0x00, 0x00, 0x00, 0x00, 0x00,
 0x00, 0x00, 0x00, 0x00, 0x0f, 0x0f, 0x0f, 0x00, 0x0f, 0x0f, 0x0f, 0x0f,
 0x0f, 0x0f, 0x0f, 0x0f, 0x0f, 0x0f, 0x0f, 0x0f, 0x0f, 0x00, 0x00, 0x00,
 0x00, 0x00, 0x00, 0x00, 0x00, 0x00, 0x00, 0x00, 0x00, 0x00, 0x00, 0x00,
 0x0f, 0x0f, 0x0f, 0x0f, 0x0f, 0x0f, 0x0f, 0x0f, 0x0f, 0x0f, 0x0f, 0x0f,
 0x0f, 0x0f, 0x0f, 0x0f, 0x0f, 0x00, 0x00, 0x00, 0x00, 0x00, 0x00, 0x00,
 0x00, 0x00, 0x00, 0x00, 0x00, 0x00, 0x00, 0x00, 0x0f, 0x0f, 0x0f, 0x0f,
 0x0f, 0x0f, 0x0f, 0x0f, 0x0f, 0x0f, 0x0f, 0x0f, 0x0f, 0x0f, 0x0f, 0x0f,
 0x00, 0x0c, 0x36, 0x38, 0x0c, 0x00, 0x1c, 0x06, 0x18, 0x06, 0x00, 0x00,
 0x00, 0x00, 0x00, 0x40, 0x3e, 0x0c, 0x1e, 0x1e, 0x38, 0x3f, 0x1c, 0x3f,
 0x1e, 0x1e, 0x00, 0x00, 0x18, 0x00, 0x06, 0x1e, 0x00, 0x0c, 0x36, 0x6c,
 0x3e, 0x63, 0x36, 0x06, 0x0c, 0x0c, 0x66, 0x0c, 0x00, 0x00, 0x00, 0x60,
 0x63, 0x0e, 0x33, 0x33, 0x3c, 0x03, 0x06, 0x33, 0x33, 0x33, 0x0c, 0x0c,
 0x0c, 0x00, 0x0c, 0x33, 0x00, 0x0c, 0x36, 0x4c, 0x03, 0x33, 0x1c, 0x03,
 0x06, 0x18, 0x3c, 0x0c, 0x00, 0x00, 0x00, 0x30, 0x73, 0x0c, 0x30, 0x30,
 0x36, 0x1f, 0x03, 0x30, 0x33, 0x33, 0x0c, 0x0c, 0x06, 0x3f, 0x18, 0x30,
 0x00, 0x0c, 0x00, 0x1e, 0x1e, 0x18, 0x6e, 0x00, 0x06, 0x18, 0xff, 0x3f,
 0x00, 0x3f, 0x00, 0x18, 0x7b, 0x0c, 0x1c, 0x1c, 0x33, 0x30, 0x1f, 0x18,
 0x1e, 0x3e, 0x00, 0x00, 0x03, 0x00, 0x30, 0x18, 0x00, 0x00, 0x00, 0x0c,
 0x30, 0x0c, 0x3b, 0x00, 0x06, 0x18, 0x3c, 0x0c, 0x00, 0x3f, 0x00, 0x0c,
 0x6f, 0x0c, 0x06, 0x30, 0x7f, 0x30, 0x33, 0x0c, 0x33, 0x30, 0x00, 0x00,
 0x06, 0x00, 0x18, 0x0c, 0x00, 0x0c, 0x00, 0xce, 0x1f, 0x66, 0x33, 0x00,
 0x0c, 0x0c, 0x66, 0x0c, 0x0c, 0x00, 0x0c, 0x06, 0x67, 0x0c, 0x33, 0x33,
 0x30, 0x33, 0x33, 0x0c, 0x33, 0x18, 0x0c, 0x0c, 0x0c, 0x3f, 0x0c, 0x00,
 0x00, 0x0c, 0x00, 0x7e, 0x0c, 0x63, 0x6e, 0x00, 0x18, 0x06, 0x00, 0x00,
 0x0c, 0x00, 0x0c, 0x03, 0x3e, 0x3f, 0x3f, 0x1e, 0x78, 0x1e, 0x1e, 0x0c,
 0x1e, 0x0e, 0x0c, 0x0c, 0x18, 0x00, 0x06, 0x0c, 0x00, 0x00, 0x00, 0x00,
 0x00, 0x00, 0x00, 0x00, 0x00, 0x00, 0x00, 0x00, 0x06, 0x00, 0x00, 0x01,
 0x00, 0x00, 0x00, 0x00, 0x00, 0x00, 0x00, 0x00, 0x00, 0x00, 0x00, 0x06,
 0x00, 0x00, 0x00, 0x00, 0x70, 0x0c, 0x3f, 0x3c, 0x1f, 0x7f, 0x7f, 0x3c,
 0x33, 0x1e, 0x3c, 0x67, 0x0f, 0x63, 0x63, 0x3e, 0x3f, 0x1e, 0x3f, 0x1e,
 0x3f, 0x33, 0x63, 0x63, 0x63, 0x33, 0x7f, 0x1c, 0x00, 0x00, 0x18, 0x36,
 0x00, 0x1e, 0x66, 0x66, 0x36, 0x46, 0x46, 0x66, 0x33, 0x0c, 0x18, 0x66,
 0x06, 0x77, 0x67, 0x7f, 0x66, 0x33, 0x66, 0x33, 0x2d, 0x33, 0x63, 0x63,
 0x63, 0x33, 0x63, 0x36, 0x00, 0x18, 0x3c, 0x36, 0x3c, 0x33, 0x66, 0x03,
 0x66, 0x16, 0x16, 0x03, 0x33, 0x0c, 0x18, 0x36, 0x06, 0x7f, 0x6f, 0x63,
 0x66, 0x33, 0x66, 0x07, 0x0c, 0x33, 0x63, 0x63, 0x36, 0x33, 0x31, 0x36,
 0x3c, 0x30, 0x7e, 0x7f, 0x66, 0x33, 0x3e, 0x03, 0x66, 0x1e, 0x1e, 0x03,
 0x3f, 0x0c, 0x18, 0x1e, 0x06, 0x7f, 0x7b, 0x63, 0x3e, 0x33, 0x3e, 0x0e,
 0x0c, 0x33, 0x63, 0x6b, 0x1c, 0x1e, 0x18, 0x1c, 0x06, 0x7f, 0x18, 0x36,
 0x7e, 0x3f, 0x66, 0x03, 0x66, 0x16, 0x16, 0x73, 0x33, 0x0c, 0x19, 0x36,
 0x46, 0x6b, 0x73, 0x63, 0x06, 0x3b, 0x36, 0x38, 0x0c, 0x33, 0x63, 0x7f,
 0x36, 0x0c, 0x4c, 0x00, 0x06, 0x30, 0x18, 0x7f, 0x06, 0x33, 0x66, 0x66,
 0x36, 0x46, 0x06, 0x66, 0x33, 0x0c, 0x1f, 0x66, 0x66, 0x63, 0x63, 0x7f,
 0x06, 0x1e, 0x66, 0x33, 0x0c, 0x33, 0x36, 0x77, 0x63, 0x0c, 0x66, 0x00,
 0x3c, 0x18, 0x18, 0x36, 0x3c, 0x33, 0x3f, 0x3c, 0x1f, 0x7f, 0x0f, 0x7c,
 0x33, 0x1e, 0x0e, 0x67, 0x7f, 0x63, 0x63, 0x3e, 0x0f, 0x38, 0x67, 0x1e,
 0x1e, 0x3f, 0x1c, 0x63, 0x63, 0x1e, 0x7f, 0x00, 0x60, 0x00, 0x18, 0x36,
 0x00, 0x00, 0x00, 0x00, 0x00, 0x00, 0x00, 0x00, 0x00, 0x00, 0x00, 0x00,
 0x00, 0x00, 0x00, 0x00, 0x00, 0x00, 0x00, 0x00, 0x00, 0x00, 0x00, 0x00,
 0x00, 0x00, 0x00, 0x00, 0x38, 0x00, 0x00, 0x00, 0x00, 0x00, 0x07, 0x00,
 0x38, 0x00, 0x1c, 0x00, 0x07, 0x0c, 0x30, 0x07, 0x0e, 0x00, 0x00, 0x00,
 0x00, 0x00, 0x00, 0x00, 0x08, 0x00, 0x00, 0x00, 0x00, 0x00, 0x00, 0x0e,
 0x00, 0x0e, 0x0e, 0x01, 0x0e, 0x00, 0x06, 0x00, 0x30, 0x00, 0x36, 0x00,
 0x06, 0x00, 0x00, 0x06, 0x0c, 0x00, 0x00, 0x00, 0x00, 0x00, 0x00, 0x00,
 0x0c, 0x00, 0x00, 0x00, 0x00, 0x00, 0x00, 0x00, 0x0e, 0x00, 0x00, 0x03,
 0x00, 0x1e, 0x06, 0x1e, 0x30, 0x1e, 0x06, 0x6e, 0x36, 0x0e, 0x30, 0x66,
 0x0c, 0x33, 0x1f, 0x1e, 0x3b, 0x6e, 0x3b, 0x3e, 0x3e, 0x33, 0x33, 0x63,
 0x63, 0x33, 0x3f, 0x3c, 0x00, 0x3c, 0x1c, 0x06, 0x66, 0x30, 0x3e, 0x33,
 0x3e, 0x33, 0x0f, 0x33, 0x6e, 0x0c, 0x30, 0x36, 0x0c, 0x7f, 0x33, 0x33,
 0x66, 0x33, 0x6e, 0x03, 0x0c, 0x33, 0x33, 0x6b, 0x36, 0x33, 0x19, 0x60,
 0x3c, 0x66, 0x18, 0x0c, 0x66, 0x3e, 0x66, 0x03, 0x33, 0x3f, 0x06, 0x33,
 0x66, 0x0c, 0x30, 0x1e, 0x0c, 0x7f, 0x33, 0x33, 0x66, 0x33, 0x66, 0x1e,
 0x0c, 0x33, 0x33, 0x7f, 0x1c, 0x33, 0x0c, 0x7c, 0x66, 0x7e, 0x18, 0x18,
 0x66, 0x33, 0x66, 0x33, 0x33, 0x03, 0x06, 0x3e, 0x66, 0x0c, 0x33, 0x36,
 0x0c, 0x6b, 0x33, 0x33, 0x3e, 0x3e, 0x06, 0x30, 0x2c, 0x33, 0x1e, 0x7f,
 0x36, 0x3e, 0x26, 0x66, 0x66, 0x06, 0x18, 0x30, 0xfc, 0x6e, 0x3b, 0x1e,
 0x6e, 0x1e, 0x0f, 0x30, 0x67, 0x1e, 0x33, 0x67, 0x1e, 0x63, 0x33, 0x1e,
 0x06, 0x30, 0x0f, 0x1f, 0x18, 0x6e, 0x0c, 0x36, 0x63, 0x30, 0x3f, 0xfc,
 0x3c, 0x7c, 0x3c, 0x60, 0x00, 0x00, 0x00, 0x00, 0x00, 0x00, 0x00, 0x1f,
 0x00, 0x00, 0x1e, 0x00, 0x00, 0x00, 0x00, 0x00, 0x0f, 0x78, 0x00, 0x00,
 0x00, 0x00, 0x00, 0x00, 0x00, 0x1f, 0x00, 0x00, 0x00, 0x00, 0x00, 0x40,
 0x00, 0x7f, 0x1e, 0x1e, 0x63, 0x36, 0x3b, 0x3e, 0x1f, 0x7f, 0x63, 0x3e,
 0x00, 0x3c, 0x63, 0x03, 0x30, 0x40, 0x08, 0x0c, 0x3f, 0x3e, 0x03, 0x07,
 0x0c, 0x1c, 0x63, 0x3e, 0x03, 0x63, 0x7b, 0x08, 0x00, 0x7f, 0x30, 0x33,
 0x63, 0x7f, 0x66, 0x7f, 0x3f, 0x7f, 0x63, 0x7f, 0x00, 0x7e, 0x63, 0x03,
 0x30, 0x40, 0x0c, 0x0c, 0x3f, 0x3e, 0x03, 0x0f, 0x0c, 0x36, 0x63, 0x7f,
 0x03, 0x63, 0x7b, 0x18, 0x00, 0x30, 0x30, 0x33, 0x63, 0x6b, 0x66, 0x63,
 0x61, 0x63, 0x63, 0x63, 0x03, 0x63, 0x63, 0x03, 0x30, 0x60, 0x04, 0x0c,
 0x03, 0x30, 0x03, 0x1b, 0x06, 0x77, 0x63, 0x63, 0x03, 0x33, 0x63, 0x38,
 0x01, 0x30, 0x3e, 0x3f, 0x63, 0x6b, 0x66, 0x63, 0x61, 0x63, 0x63, 0x63,
 0x03, 0x63, 0x63, 0x03, 0x30, 0x20, 0x06, 0x0c, 0x03, 0x30, 0x03, 0x1b,
 0x06, 0x63, 0x63, 0x03, 0x03, 0x33, 0x63, 0x7f, 0x03, 0x30, 0x33, 0x03,
 0x63, 0x6b, 0x66, 0x63, 0x61, 0x63, 0x63, 0x63, 0x03, 0x63, 0x63, 0x03,
 0x30, 0x30, 0x02, 0x0c, 0x03, 0x30, 0x03, 0x33, 0x03, 0x00, 0x77, 0x03,
 0x63, 0x1b, 0x63, 0x7f, 0x06, 0x30, 0x33, 0x03, 0x7f, 0x6b, 0x66, 0x63,
 0x61, 0x63, 0x63, 0x63, 0x03, 0x30, 0x63, 0x03, 0x30, 0x10, 0x03, 0x0c,
 0x03, 0x18, 0x03, 0x33, 0x03, 0x00, 0x36, 0x03, 0x63, 0x1b, 0x63, 0x38,
 0x0c, 0x30, 0x6e, 0x3e, 0x2e, 0x6b, 0x66, 0x63, 0x3f, 0x63, 0x7f, 0x7f,
 0x03, 0x18, 0x3f, 0x03, 0x30, 0x18, 0x01, 0x0c, 0x1f, 0x18, 0x3f, 0x63,
 0x7f, 0x00, 0x3e, 0x03, 0x7f, 0x0f, 0x3e, 0x18, 0x00, 0x30, 0x00, 0x00,
 0x2c, 0x00, 0x00, 0x00, 0x1f, 0x63, 0x3e, 0x3e, 0x03, 0x0c, 0x1f, 0x03,
 0x30, 0x08, 0x01, 0x0c, 0x1f, 0x7e, 0x3f, 0x63, 0x7f, 0x00, 0x1c, 0x03,
 0x3e, 0x07, 0x1c, 0x08, 0x00, 0x6e, 0x3b, 0x3b, 0x60, 0x0c, 0x7f, 0x6e,
 0x08, 0x7e, 0x1c, 0x63, 0x1c, 0x63, 0x63, 0x63, 0x1c, 0x6b, 0x30, 0x00,
 0x3f, 0x00, 0x00, 0x0c, 0x03, 0x18, 0x08, 0x1c, 0x40, 0x08, 0x0c, 0x36,
 0x00, 0x33, 0x6e, 0x66, 0x60, 0x0c, 0x7f, 0x33, 0x0c, 0x00, 0x3e, 0x33,
 0x30, 0x63, 0x67, 0x63, 0x3e, 0x6b, 0x38, 0x00, 0x3f, 0x00, 0x38, 0x0c,
 0x03, 0x18, 0x08, 0x38, 0x42, 0x0c, 0x0e, 0x36, 0x00, 0x33, 0x06, 0x66,
 0x60, 0x00, 0x00, 0x33, 0x0e, 0x3c, 0x63, 0x33, 0x60, 0x63, 0x67, 0x77,
 0x63, 0x6f, 0x3c, 0x0c, 0x0c, 0x63, 0x3c, 0x0c, 0x06, 0x0c, 0x3c, 0x70,
 0x65, 0x04, 0x1b, 0x36, 0x00, 0x3e, 0x06, 0x3e, 0x60, 0x00, 0x00, 0x3e,
 0x0f, 0x60, 0x03, 0x3e, 0x60, 0x63, 0x6f, 0x77, 0x73, 0x6f, 0x3c, 0x0c,
 0x0c, 0x77, 0x0c, 0x0c, 0x06, 0x0c, 0x66, 0x60, 0x25, 0x26, 0x51, 0x7f,
 0x0c, 0x30, 0x06, 0x06, 0x63, 0x00, 0x00, 0x30, 0x0c, 0x7c, 0x03, 0x30,
 0x63, 0x63, 0x6b, 0x7f, 0x7b, 0x67, 0x36, 0x1e, 0x0c, 0x36, 0x0c, 0x0c,
 0x0c, 0x06, 0x03, 0x76, 0x32, 0x52, 0x71, 0x7f, 0x0c, 0x30, 0x06, 0x06,
 0x63, 0x00, 0x00, 0x30, 0x0c, 0x66, 0x03, 0x33, 0x63, 0x63, 0x7b, 0x7f,
 0x7b, 0x63, 0x36, 0x3f, 0x0c, 0x1c, 0x0c, 0x1e, 0x0c, 0x06, 0x03, 0x3e,
 0x10, 0x53, 0x31, 0x36, 0x3f, 0x30, 0x0f, 0x06, 0x3e, 0x00, 0x00, 0x30,
 0x0c, 0xfc, 0x06, 0x3f, 0x3e, 0x63, 0x7b, 0x6b, 0x6b, 0x3e, 0x33, 0x3f,
 0x0c, 0x7f, 0x0c, 0x1e, 0x18, 0x03, 0x07, 0x08, 0x18, 0x21, 0x7b, 0x36,
 0x3f, 0x78, 0x00, 0x0f, 0x1c, 0x00, 0x00, 0x1e, 0x0c, 0x00, 0x0e, 0x00,
 0x1c, 0x63, 0x73, 0x6b, 0x6b, 0x1c, 0x33, 0x0c, 0x0c, 0x7f, 0x0c, 0x00,
 0x18, 0x03, 0x0e, 0x00, 0x08, 0x01, 0x4f, 0x36, 0x00, 0x00, 0x00, 0x00,
 0x00, 0x00, 0x00, 0x00, 0x00, 0x00, 0x00, 0x00, 0x00, 0x00, 0x00, 0x00,
 0x00, 0x00, 0x00, 0x00, 0x00, 0x00, 0x00, 0x00, 0x00, 0x00, 0x00, 0x00,
 0x00, 0x00, 0x00, 0x00, 0x00, 0x0e, 0xe0, 0xee, 0x00, 0x0e, 0xe0, 0xee,
 0x00, 0x0e, 0xe0, 0xee, 0x00, 0x0e, 0xe0, 0xee, 0x00, 0x0e, 0xe0, 0xee,
 0x00, 0x0e, 0xe0, 0xee, 0x00, 0x0e, 0xe0, 0xee, 0x00, 0x0e, 0xe0, 0xee,
 0x00, 0x0e, 0xe0, 0xee, 0x00, 0x0e, 0xe0, 0xee, 0x00, 0x0e, 0xe0, 0xee,
 0x00, 0x0e, 0xe0, 0xee, 0x00, 0x0e, 0xe0, 0xee, 0x00, 0x0e, 0xe0, 0xee,
 0x00, 0x0e, 0xe0, 0xee, 0x00, 0x0e, 0xe0, 0xee, 0x0c, 0x00, 0x00, 0x00,
 0x00, 0x00, 0x00, 0x00, 0x00, 0x00, 0x00, 0x00, 0x00, 0x00, 0x00, 0x00,
 0x00, 0x00, 0x00, 0x00, 0x00, 0x00, 0x00, 0x00, 0x00, 0x00, 0x00, 0x00,
 0x00, 0x00, 0x00, 0x00, 0x12, 0x00, 0x00, 0x00, 0x0e, 0x0e, 0x0e, 0x0e,
 0xe0, 0xe0, 0xe0, 0xe0, 0xee, 0xee, 0xee, 0xee, 0x00, 0x00, 0x00, 0x00,
 0x0e, 0x0e, 0x0e, 0x0e, 0xe0, 0xe0, 0xe0, 0xe0, 0xee, 0xee, 0xee, 0xee,
 0x12, 0x00, 0x00, 0x00, 0x00, 0x00, 0x00, 0x00, 0x00, 0x00, 0x00, 0x00,
 0x00, 0x00, 0x00, 0x00, 0x00, 0x00, 0x00, 0x00, 0x00, 0x00, 0x00, 0x00,
 0x00, 0x00, 0x00, 0x00, 0x00, 0x00, 0x00, 0x00, 0x12, 0x00, 0x00, 0x00,
 0x00, 0x00, 0x00, 0x00, 0x00, 0x00, 0x00, 0x00, 0x00, 0x00, 0x00, 0x00,
 0x0e, 0x0e, 0x0e, 0x0e, 0x0e, 0x0e, 0x0e, 0x0e, 0x0e, 0x0e, 0x0e, 0x0e,
 0x0e, 0x0e, 0x0e, 0x0e, 0x0c, 0x00, 0x00, 0x00, 0x00, 0x00, 0x00, 0x00,
 0x00, 0x00, 0x00, 0x00, 0x00, 0x00, 0x00, 0x00, 0x0e, 0x0e, 0x0e, 0x0e,
 0x0e, 0x0e, 0x0e, 0x0e, 0x0e, 0x0e, 0x0e, 0x0e, 0x0e, 0x0e, 0x0e, 0x0e,
 0x00, 0x00, 0x00, 0x00, 0x00, 0x00, 0x00, 0x00, 0x00, 0x00, 0x00, 0x00,
 0x00, 0x00, 0x00, 0x00, 0x00, 0x00, 0x00, 0x00, 0x00, 0x00, 0x00, 0x00,
 0x00, 0x00, 0x00, 0x00, 0x00, 0x00, 0x00, 0x00, 0x00, 0x0e, 0xe0, 0xee,
 0x00, 0x0e, 0xe0, 0xee, 0x00, 0x0e, 0xe0, 0xee, 0x00, 0x0e, 0xe0, 0xee,
 0x00, 0x0e, 0xe0, 0xee, 0x00, 0x0e, 0xe0, 0xee, 0x00, 0x0e, 0xe0, 0xee,
 0x00, 0x0e, 0xe0, 0xee, 0x00, 0x0e, 0xe0, 0xee, 0x00, 0x0e, 0xe0, 0xee,
 0x00, 0x0e, 0xe0, 0xee, 0x00, 0x0e, 0xe0, 0xee, 0x00, 0x0e, 0xe0, 0xee,
 0x00, 0x0e, 0xe0, 0xee, 0x00, 0x0e, 0xe0, 0xee, 0x00, 0x0e, 0xe0, 0xee,
 0x00, 0x00, 0x00, 0x00, 0x00, 0x00, 0x00, 0x00, 0x00, 0x00, 0x00, 0x00,
 0x00, 0x00, 0x00, 0x00, 0x00, 0x00, 0x00, 0x00, 0x00, 0x00, 0x00, 0x00,
 0x00, 0x00, 0x00, 0x00, 0x00, 0x00, 0x00, 0x00, 0x00, 0x00, 0x00, 0x00,
 0x0e, 0x0e, 0x0e, 0x0e, 0xe0, 0xe0, 0xe0, 0xe0, 0xee, 0xee, 0xee, 0xee,
 0x00, 0x00, 0x00, 0x00, 0x0e, 0x0e, 0x0e, 0x0e, 0xe0, 0xe0, 0xe0, 0xe0,
 0xee, 0xee, 0xee, 0xee, 0x00, 0x00, 0x00, 0x00, 0x00, 0x00, 0x00, 0x00,
 0x00, 0x00, 0x00, 0x00, 0x00, 0x00, 0x00, 0x00, 0x00, 0x00, 0x00, 0x00,
 0x00, 0x00, 0x00, 0x00, 0x00, 0x00, 0x00, 0x00, 0x00, 0x00, 0x00, 0x00,
 0xe0, 0xe0, 0xe0, 0xe0, 0xe0, 0xe0, 0xe0, 0xe0, 0xe0, 0xe0, 0xe0, 0xe0,
 0xe0, 0xe0, 0xe0, 0xe0, 0xee, 0xee, 0xee, 0xee, 0xee, 0xee, 0xee, 0xee,
 0xee, 0xee, 0xee, 0xee, 0xee, 0xee, 0xee, 0xee, 0xe0, 0xe0, 0xe0, 0xe0,
 0xe0, 0xe0, 0xe0, 0xe0, 0xe0, 0xe0, 0xe0, 0xe0, 0xe0, 0xe0, 0xe0, 0xe0,
 0xee, 0xee, 0xee, 0xee, 0xee, 0xee, 0xee, 0xee, 0xee, 0xee, 0xee, 0xee,
 0xee, 0xee, 0xee, 0xee};
